# xmcd
#
# Track frame offsets: 
#        150
#        15575
#        30147
#        40244
#        53670
#        66316
#        78033
#        87034
#        99345
#        112550
#        122062
#        132492
#
# Disc length: 1900 seconds
#
# Revision: 0
# Processed by: cddbd v1.5.2PL0 Copyright (c) Steve Scherf et al.
# Submitted via: ExactAudioCopy v0.99pb4
#
DISCID=80076a0c
DTITLE=Adrian and Travis Hughes - Banjo Boogie
DYEAR=2003
DGENRE=Bluegrass
TTITLE0=Banjo Boogie
TTITLE1=Foggie Mt. Breakdown
TTITLE2=John Hardy
TTITLE3=Lonesome Road Blues
TTITLE4=Home Sweet Home
TTITLE5=Gotta Travel On
TTITLE6=Down in the Willow Garden
TTITLE7=Grandfather's Clock
TTITLE8=Rocky Top
TTITLE9=I Saw the Light
TTITLE10=Banjo Signal
TTITLE11=Jesus Hold my Hand
EXTD=
EXTT0=
EXTT1=
EXTT2=
EXTT3=
EXTT4=
EXTT5=
EXTT6=
EXTT7=
EXTT8=
EXTT9=
EXTT10=
EXTT11=
PLAYORDER=
